<svg width="362" height="356" viewBox="0 0 362 356" fill="none" xmlns="http://www.w3.org/2000/svg">
<path fill-rule="evenodd" clip-rule="evenodd" d="M199.182 274.982L200.371 316.431L309.611 261.12C310.744 260.546 311.409 259.299 311.402 257.762L310.728 114.221C310.724 113.471 310.56 112.685 310.249 111.924L298.646 83.5288C298.116 82.5063 297.441 81.7325 296.777 81.1555C295.582 80.1171 294.423 79.7161 294.217 79.6501C294.201 79.6451 294.185 79.6403 294.17 79.6355L294.151 79.63L256.352 68.0605C255.579 67.8239 254.818 67.811 254.146 68.023L216.91 79.7589L204.232 53.516L168.441 43.1571C167.763 42.9609 167.095 42.937 166.49 43.0872L72.8746 66.3199C72.5649 66.3176 72.3134 66.3886 72.1097 66.5097L72.8746 66.3199C73.1456 66.3219 73.4611 66.38 73.8281 66.5097L192.304 108.478C194.24 109.181 195.406 110.68 195.958 112.274C196.26 113.148 196.379 114.051 196.338 114.867C196.315 115.312 195.812 121.081 195.013 130.224C195.013 130.227 195.012 130.229 195.012 130.232C193.301 149.819 190.238 184.881 187.66 216.265C185.605 241.284 183.857 265.963 183.348 273.257C183.284 274.178 184.214 275.083 184.965 274.837L195.292 271.459C196.991 270.903 199.12 272.832 199.182 274.982Z" fill="#07080A"/>
<path d="M204.232 53.516L155.843 68.6713C155.412 68.8063 155.561 69.5634 156.055 69.7468L197.491 85.1402C198.505 85.5167 199.515 85.5615 200.392 85.2687L216.91 79.7589M204.232 53.516L216.91 79.7589M204.232 53.516L168.441 43.1571C167.763 42.9609 167.095 42.937 166.49 43.0872L72.8746 66.3199M216.91 79.7589L254.146 68.023C254.818 67.811 255.579 67.8239 256.352 68.0605L294.151 79.63L294.17 79.6355M195.958 112.274C196.26 113.148 196.379 114.051 196.338 114.867C196.315 115.312 195.812 121.081 195.013 130.224M195.958 112.274C195.406 110.68 194.24 109.181 192.304 108.478L73.8281 66.5097C73.4611 66.38 73.1456 66.3219 72.8746 66.3199M195.958 112.274L296.777 81.1555M195.013 130.224L195.012 130.232M195.013 130.224C195.013 130.227 195.012 130.229 195.012 130.232M72.8746 66.3199C72.5649 66.3176 72.3134 66.3886 72.1097 66.5097M72.8746 66.3199L72.1097 66.5097M296.777 81.1555C297.441 81.7325 298.116 82.5063 298.646 83.5288L310.249 111.924C310.56 112.685 310.724 113.471 310.728 114.221L311.402 257.762C311.409 259.299 310.744 260.546 309.611 261.12L200.371 316.431L199.182 274.982M296.777 81.1555C295.582 80.1171 294.423 79.7161 294.217 79.6501M294.217 79.6501C294.201 79.6451 294.185 79.6403 294.17 79.6355M294.217 79.6501C294.209 79.6478 294.203 79.6459 294.198 79.6444C294.189 79.6414 294.179 79.6385 294.17 79.6355M187.66 216.265C185.605 241.284 183.857 265.963 183.348 273.257M187.66 216.265C190.238 184.881 193.301 149.819 195.012 130.232M187.66 216.265L79.9656 271.754C78.905 272.3 77.6712 272.33 76.8691 270.941C76.5827 270.445 76.3578 269.516 76.3781 269.007L77.7333 235.088C77.8175 232.981 75.7784 230.911 74.012 231.31L64.0165 233.567C63.2742 233.735 62.4193 232.857 62.4667 231.976L71.2956 68.16C71.352 67.5501 71.5517 66.8416 72.1097 66.5097M183.348 273.257C183.284 274.178 184.214 275.083 184.965 274.837M183.348 273.257C183.284 274.175 184.217 275.082 184.965 274.837M199.182 274.982C199.12 272.832 196.991 270.903 195.292 271.459M199.182 274.982C199.12 272.832 196.99 270.903 195.292 271.459M195.292 271.459L184.965 274.837" stroke="#BB7C49" stroke-width="0.510966"/>
<path d="M168.51 66.8303L157.79 70.3498L198.654 85.4124C198.91 85.5065 199.19 85.5105 199.448 85.4238L211.381 81.4102L170.572 66.8564C169.907 66.6191 169.181 66.6099 168.51 66.8303Z" stroke="#BB7C49" stroke-width="0.510966"/>
<path d="M181.11 112.121C184.024 113.145 186.23 116.581 185.947 119.656L170.217 290.623L183.729 286.177C185.691 285.532 188.151 287.77 188.209 290.251L188.945 321.683L200.297 316.496L199.128 275.752C199.058 273.277 196.607 271.056 194.652 271.695L185.195 274.79C184.323 275.076 183.246 274.005 183.334 272.941L196.319 115.693C196.572 112.632 194.377 109.236 191.486 108.214L72.7358 66.2477C71.8544 65.9362 70.977 65.8755 70.1892 66.0714L58.4181 68.9996L181.11 112.121Z" fill="#07080A"/>
<path d="M170.217 290.623C165.377 291.718 161.516 289.182 161.516 289.182L75.8282 254.07V267.234C75.8282 270.03 77.7393 272.963 80.2884 274.08L188.945 321.683L188.209 290.251C188.151 287.77 185.691 285.532 183.729 286.177L170.217 290.623Z" fill="#07080A"/>
<path d="M171.394 118.417C174.277 119.469 176.444 122.871 176.171 125.918L161.516 289.182C161.516 289.182 165.377 291.718 170.217 290.623L185.947 119.656C186.23 116.581 184.024 113.145 181.11 112.121L58.4181 68.9996C54.4996 70.5554 52.2899 76.1447 52.2899 76.1447C52.7926 75.6964 53.602 75.4617 54.903 75.9361L171.394 118.417Z" fill="#07080A"/>
<path d="M161.516 289.182L176.171 125.918C176.444 122.871 174.277 119.469 171.394 118.417L54.903 75.9361C53.602 75.4617 52.7926 75.6964 52.2899 76.1447C51.6565 76.7481 51.5143 77.5379 51.483 77.8228C51.4751 77.8945 51.4719 77.9677 51.4671 78.0406L41.1404 234.445C40.9466 237.38 42.9744 240.607 45.7183 241.732L75.8282 254.07L161.516 289.182Z" fill="#07080A"/>
<path d="M161.516 289.182L176.171 125.918C176.444 122.871 174.277 119.469 171.393 118.417L54.903 75.9361C53.602 75.4617 52.7926 75.6964 52.2899 76.1447M161.516 289.182C161.516 289.182 165.377 291.718 170.217 290.623M161.516 289.182L75.8282 254.07M52.2899 76.1447C51.6565 76.7481 51.5143 77.5379 51.483 77.8228C51.4751 77.8945 51.4719 77.9677 51.4671 78.0406L41.1403 234.445C40.9466 237.38 42.9744 240.607 45.7183 241.732L75.8282 254.07M52.2899 76.1447C52.2899 76.1447 54.4996 70.5554 58.4181 68.9996M170.217 290.623L185.947 119.656C186.23 116.581 184.024 113.145 181.11 112.121L58.4181 68.9996M170.217 290.623L183.729 286.177C185.691 285.532 188.151 287.77 188.209 290.251L188.945 321.683M75.8282 254.07V267.234C75.8282 270.03 77.7393 272.963 80.2884 274.08L188.945 321.683M58.4181 68.9996L70.1892 66.0714C70.977 65.8755 71.8544 65.9362 72.7358 66.2477L191.486 108.214C194.377 109.236 196.572 112.632 196.319 115.693L183.334 272.941C183.246 274.005 184.323 275.076 185.195 274.79L194.652 271.695C196.607 271.056 199.058 273.277 199.128 275.752L200.297 316.496L188.945 321.683" stroke="#BB7C49" stroke-width="0.510966"/>
<path d="M60.4741 93.6117C60.6702 90.6288 63.0853 89.0545 65.8825 90.0862L160.404 124.951C163.301 126.02 165.463 129.456 165.155 132.504L156.573 217.694C156.279 220.62 153.814 222.079 151.039 220.971L59.6098 184.442C56.8456 183.338 54.7902 180.092 54.9844 177.138L60.4741 93.6117Z" fill="#07080A" stroke="#BB7C49" stroke-width="0.510966"/>
<path d="M141.05 254.493L152.893 259.102L153.184 255.875L141.461 251.9L131.155 250.343L86.1415 232.016V233.633L138.522 254.873L141.05 254.493Z" fill="black"/>
<path d="M153.184 255.875L153.617 251.062C153.831 248.684 152.14 246.028 149.889 245.207L142.21 242.406L141.461 251.9L153.184 255.875Z" fill="#07080A"/>
<path d="M141.05 254.493L140.704 260.14L152.391 264.692L152.893 259.102L141.05 254.493Z" fill="#07080A"/>
<path d="M130.019 267.554L147.367 274.658C149.562 275.557 151.518 274.396 151.727 272.069L152.391 264.692L140.704 260.14L130.019 267.554Z" fill="#07080A"/>
<path d="M130.79 255.875L130.019 267.554L140.704 260.14L141.05 254.493L138.522 254.873L130.79 255.875Z" fill="#07080A"/>
<path d="M135.856 240.088C133.679 239.294 131.803 240.523 131.65 242.844L131.155 250.343L141.461 251.9L142.21 242.406L135.856 240.088Z" fill="#07080A"/>
<path d="M81.524 235.534L130.79 255.875L138.522 254.873L86.1415 233.633L81.524 235.534Z" fill="#07080A"/>
<path d="M82.6728 230.603C82.1773 230.402 81.7419 230.68 81.718 231.214L81.524 235.534L86.1415 233.633V232.016L82.6728 230.603Z" fill="#07080A"/>
<path d="M130.019 267.554L147.367 274.658C149.562 275.557 151.518 274.396 151.727 272.069L152.391 264.692M130.019 267.554L130.79 255.875M130.019 267.554L140.704 260.14M152.391 264.692L140.704 260.14M152.391 264.692L152.893 259.102M130.79 255.875L81.524 235.534M130.79 255.875L138.522 254.873M140.704 260.14L141.05 254.493M131.155 250.343L131.65 242.844C131.803 240.523 133.679 239.294 135.856 240.088L142.21 242.406M131.155 250.343L141.461 251.9M131.155 250.343L86.1415 232.016M142.21 242.406L141.461 251.9M142.21 242.406L149.889 245.207C152.14 246.028 153.831 248.684 153.617 251.062L153.184 255.875M141.461 251.9L153.184 255.875M86.1415 232.016L82.6728 230.603C82.1773 230.402 81.7419 230.68 81.718 231.214L81.524 235.534M86.1415 232.016V233.633M81.524 235.534L86.1415 233.633M86.1415 233.633L138.522 254.873M138.522 254.873L141.05 254.493M141.05 254.493L152.893 259.102M152.893 259.102L153.184 255.875" stroke="#BB7C49" stroke-width="0.510966"/>
<path d="M92.0838 154.168C92.0592 154.431 91.9832 154.743 91.8558 155.105C91.7337 155.453 91.5973 155.744 91.4467 155.979L90.5411 155.661C90.5165 155.923 90.4405 156.236 90.3131 156.598C90.191 156.945 90.0546 157.237 89.904 157.472L85.376 155.879C85.4058 155.601 85.4818 155.289 85.604 154.942C85.7314 154.579 85.8678 154.288 86.0131 154.068L85.1075 153.749C85.1374 153.472 85.2133 153.159 85.3355 152.812C85.4629 152.45 85.5993 152.158 85.7446 151.938L84.839 151.62C84.8689 151.342 84.9449 151.029 85.067 150.682C85.1944 150.32 85.3308 150.029 85.4761 149.808C85.506 149.531 85.582 149.218 85.7041 148.871C85.8315 148.509 85.9679 148.217 86.1132 147.997C86.1431 147.719 86.2191 147.407 86.3412 147.06C86.4686 146.697 86.605 146.406 86.7503 146.186L87.6559 146.505C87.6858 146.227 87.7618 145.914 87.8839 145.567C88.0113 145.205 88.1477 144.914 88.293 144.693L89.1986 145.012C89.2285 144.734 89.3045 144.422 89.4266 144.074C89.5541 143.712 89.6904 143.421 89.8357 143.201L94.3638 144.793C94.3392 145.056 94.2632 145.369 94.1358 145.731C94.0137 146.078 93.8773 146.369 93.7267 146.605L94.6323 146.923C94.6077 147.186 94.5317 147.498 94.4043 147.861C94.2822 148.208 94.1458 148.499 93.9952 148.734L92.1839 148.097C92.2138 147.819 92.2898 147.507 92.4119 147.16C92.5394 146.798 92.6757 146.506 92.8211 146.286L90.1042 145.33C90.0797 145.593 90.0037 145.906 89.8762 146.268C89.7541 146.615 89.6178 146.906 89.4671 147.142L88.5615 146.823C88.5369 147.086 88.4609 147.398 88.3335 147.761C88.2114 148.108 88.075 148.399 87.9244 148.634C87.8998 148.897 87.8238 149.209 87.6964 149.572C87.5743 149.919 87.4379 150.21 87.2873 150.445C87.2627 150.708 87.1867 151.021 87.0593 151.383C86.9372 151.73 86.8008 152.021 86.6502 152.257L87.5558 152.575C87.5312 152.838 87.4552 153.15 87.3278 153.513C87.2057 153.86 87.0693 154.151 86.9187 154.386L89.6355 155.342C89.6654 155.064 89.7414 154.752 89.8635 154.405C89.9909 154.042 90.1273 153.751 90.2726 153.531L92.0838 154.168ZM102.423 153.734C102.398 153.997 102.322 154.309 102.195 154.672C102.073 155.019 101.936 155.31 101.786 155.545C101.761 155.808 101.685 156.121 101.558 156.483C101.436 156.83 101.299 157.121 101.149 157.357L100.47 157.118C100.445 157.381 100.369 157.693 100.242 158.055C100.119 158.402 99.983 158.694 99.8324 158.929L98.7004 158.531C98.6758 158.794 98.5998 159.106 98.4724 159.468C98.3503 159.815 98.2139 160.107 98.0633 160.342L94.4409 159.068C94.4707 158.79 94.5467 158.477 94.6689 158.13C94.7963 157.768 94.9327 157.477 95.078 157.257L93.946 156.858C93.9759 156.581 94.0519 156.268 94.174 155.921C94.3014 155.559 94.4378 155.267 94.5831 155.047L93.9039 154.808C93.9338 154.53 94.0098 154.218 94.1319 153.871C94.2593 153.509 94.3957 153.217 94.541 152.997C94.5709 152.719 94.6469 152.407 94.769 152.06C94.8964 151.697 95.0328 151.406 95.1781 151.186C95.208 150.908 95.284 150.596 95.4061 150.248C95.5335 149.886 95.6699 149.595 95.8152 149.375L96.4944 149.614C96.5243 149.336 96.6003 149.023 96.7224 148.676C96.8498 148.314 96.9862 148.023 97.1315 147.802L98.2635 148.201C98.2934 147.923 98.3694 147.61 98.4915 147.263C98.619 146.901 98.7553 146.61 98.9006 146.389L102.523 147.664C102.498 147.926 102.422 148.239 102.295 148.601C102.173 148.948 102.037 149.239 101.886 149.475L103.018 149.873C102.993 150.136 102.917 150.448 102.79 150.81C102.668 151.158 102.531 151.449 102.381 151.684L103.06 151.923C103.035 152.186 102.959 152.498 102.832 152.861C102.71 153.208 102.574 153.499 102.423 153.734ZM99.3375 156.72C99.3674 156.442 99.4434 156.129 99.5655 155.782C99.6929 155.42 99.8293 155.129 99.9746 154.908C100.005 154.631 100.081 154.318 100.203 153.971C100.33 153.609 100.466 153.317 100.612 153.097C100.642 152.819 100.718 152.507 100.84 152.16C100.967 151.797 101.104 151.506 101.249 151.286L100.57 151.047C100.6 150.769 100.676 150.457 100.798 150.11C100.925 149.747 101.061 149.456 101.207 149.236L98.9427 148.439C98.9182 148.702 98.8422 149.015 98.7147 149.377C98.5926 149.724 98.4563 150.015 98.3056 150.251L97.6264 150.012C97.6019 150.274 97.5259 150.587 97.3984 150.949C97.2763 151.296 97.1399 151.588 96.9893 151.823C96.9647 152.086 96.8887 152.398 96.7613 152.76C96.6392 153.108 96.5028 153.399 96.3522 153.634C96.3276 153.897 96.2516 154.209 96.1242 154.572C96.0021 154.919 95.8657 155.21 95.7151 155.445L96.3943 155.684C96.3697 155.947 96.2937 156.26 96.1663 156.622C96.0442 156.969 95.9078 157.26 95.7572 157.495L98.0212 158.292C98.0511 158.014 98.1271 157.702 98.2492 157.354C98.3766 156.992 98.513 156.701 98.6583 156.481L99.3375 156.72ZM112.762 153.301C112.738 153.563 112.662 153.876 112.534 154.238C112.412 154.585 112.276 154.876 112.125 155.112C112.1 155.374 112.024 155.687 111.897 156.049C111.775 156.396 111.638 156.688 111.488 156.923C111.463 157.186 111.387 157.498 111.26 157.86C111.138 158.208 111.001 158.499 110.851 158.734C110.826 158.997 110.75 159.309 110.623 159.672C110.501 160.019 110.364 160.31 110.214 160.545C110.189 160.808 110.113 161.121 109.986 161.483C109.864 161.83 109.727 162.121 109.577 162.357L108.671 162.038C108.646 162.301 108.57 162.613 108.443 162.975C108.321 163.323 108.184 163.614 108.034 163.849L102.6 161.938C102.63 161.66 102.706 161.348 102.828 161C102.956 160.638 103.092 160.347 103.237 160.127L102.332 159.808C102.362 159.53 102.438 159.218 102.56 158.871C102.687 158.508 102.823 158.217 102.969 157.997C102.999 157.719 103.075 157.407 103.197 157.059C103.324 156.697 103.461 156.406 103.606 156.186C103.636 155.908 103.712 155.595 103.834 155.248C103.961 154.886 104.098 154.595 104.243 154.375C104.273 154.097 104.349 153.784 104.471 153.437C104.598 153.075 104.735 152.784 104.88 152.563C104.91 152.285 104.986 151.973 105.108 151.626C105.236 151.264 105.372 150.972 105.517 150.752C105.547 150.474 105.623 150.162 105.745 149.815C105.873 149.452 106.009 149.161 106.154 148.941L107.966 149.578C107.941 149.841 107.865 150.153 107.738 150.515C107.615 150.863 107.479 151.154 107.328 151.389C107.304 151.652 107.228 151.964 107.1 152.327C106.978 152.674 106.842 152.965 106.691 153.2C106.667 153.463 106.591 153.776 106.463 154.138C106.341 154.485 106.205 154.776 106.054 155.012C106.03 155.274 105.954 155.587 105.826 155.949C105.704 156.296 105.568 156.587 105.417 156.823C105.393 157.086 105.317 157.398 105.189 157.76C105.067 158.107 104.931 158.399 104.78 158.634C104.755 158.897 104.679 159.209 104.552 159.571C104.43 159.919 104.294 160.21 104.143 160.445L107.765 161.719C107.795 161.442 107.871 161.129 107.993 160.782C108.121 160.42 108.257 160.129 108.402 159.908C108.432 159.63 108.508 159.318 108.63 158.971C108.758 158.609 108.894 158.317 109.04 158.097C109.069 157.819 109.145 157.507 109.268 157.16C109.395 156.797 109.531 156.506 109.677 156.286C109.707 156.008 109.783 155.696 109.905 155.348C110.032 154.986 110.168 154.695 110.314 154.475C110.344 154.197 110.42 153.884 110.542 153.537C110.669 153.175 110.806 152.884 110.951 152.663C110.981 152.386 111.057 152.073 111.179 151.726C111.306 151.364 111.443 151.072 111.588 150.852L113.399 151.489C113.375 151.752 113.299 152.065 113.171 152.427C113.049 152.774 112.913 153.065 112.762 153.301ZM118.641 165.545C118.617 165.808 118.541 166.12 118.413 166.483C118.291 166.83 118.155 167.121 118.004 167.356L116.193 166.719C116.223 166.442 116.299 166.129 116.421 165.782C116.549 165.42 116.685 165.128 116.83 164.908L116.151 164.669C116.181 164.391 116.257 164.079 116.379 163.732C116.506 163.37 116.643 163.078 116.788 162.858L116.109 162.619C116.139 162.341 116.215 162.029 116.337 161.682C116.464 161.319 116.601 161.028 116.746 160.808L114.482 160.011C114.457 160.274 114.381 160.587 114.254 160.949C114.132 161.296 113.996 161.587 113.845 161.823C113.82 162.085 113.744 162.398 113.617 162.76C113.495 163.107 113.358 163.399 113.208 163.634C113.183 163.897 113.107 164.209 112.98 164.571C112.858 164.919 112.721 165.21 112.571 165.445L110.759 164.808C110.789 164.53 110.865 164.218 110.987 163.871C111.115 163.508 111.251 163.217 111.397 162.997C111.426 162.719 111.502 162.406 111.625 162.059C111.752 161.697 111.888 161.406 112.034 161.186C112.064 160.908 112.14 160.595 112.262 160.248C112.389 159.886 112.525 159.595 112.671 159.374C112.701 159.097 112.777 158.784 112.899 158.437C113.026 158.075 113.163 157.783 113.308 157.563C113.338 157.285 113.414 156.973 113.536 156.626C113.663 156.263 113.8 155.972 113.945 155.752C113.975 155.474 114.051 155.162 114.173 154.814C114.3 154.452 114.437 154.161 114.582 153.941C114.612 153.663 114.688 153.35 114.81 153.003C114.938 152.641 115.074 152.35 115.219 152.13L121.558 154.359C121.534 154.622 121.458 154.935 121.33 155.297C121.208 155.644 121.072 155.935 120.921 156.171L121.827 156.489C121.802 156.752 121.726 157.064 121.599 157.427C121.477 157.774 121.34 158.065 121.19 158.3L120.737 158.141C120.712 158.404 120.636 158.716 120.509 159.079C120.387 159.426 120.251 159.717 120.1 159.952L118.742 159.475C118.717 159.737 118.641 160.05 118.514 160.412C118.391 160.759 118.255 161.05 118.104 161.286L118.557 161.445C118.533 161.708 118.457 162.02 118.329 162.382C118.207 162.73 118.071 163.021 117.92 163.256L118.599 163.495C118.575 163.758 118.499 164.07 118.371 164.433C118.249 164.78 118.113 165.071 117.962 165.306L118.641 165.545ZM118.289 159.315C118.319 159.037 118.395 158.725 118.517 158.378C118.644 158.016 118.781 157.724 118.926 157.504C118.956 157.226 119.032 156.914 119.154 156.567C119.281 156.204 119.418 155.913 119.563 155.693L116.393 154.578C116.369 154.841 116.293 155.153 116.165 155.515C116.043 155.862 115.907 156.154 115.756 156.389C115.732 156.652 115.656 156.964 115.528 157.327C115.406 157.674 115.27 157.965 115.119 158.2L118.289 159.315Z" fill="#7D7D7D"/>
</svg>
